<svg xmlns="http://www.w3.org/2000/svg" xmlns:xlink="http://www.w3.org/1999/xlink" width="41" height="41" viewBox="0 0 41 41">
  <metadata><?xpacket begin="﻿" id="W5M0MpCehiHzreSzNTczkc9d"?>
<x:xmpmeta xmlns:x="adobe:ns:meta/" x:xmptk="Adobe XMP Core 5.6-c142 79.160924, 2017/07/13-01:06:39        ">
   <rdf:RDF xmlns:rdf="http://www.w3.org/1999/02/22-rdf-syntax-ns#">
      <rdf:Description rdf:about=""/>
   </rdf:RDF>
</x:xmpmeta>
                                                                                                    
                                                                                                    
                                                                                                    
                                                                                                    
                                                                                                    
                                                                                                    
                                                                                                    
                                                                                                    
                                                                                                    
                                                                                                    
                                                                                                    
                                                                                                    
                                                                                                    
                                                                                                    
                                                                                                    
                                                                                                    
                                                                                                    
                                                                                                    
                                                                                                    
                                                                                                    
                           
<?xpacket end="w"?></metadata>
<defs>
    <style>
      .cls-1 {
        fill-rule: evenodd;
        fill: url(#linear-gradient);
        filter: url(#filter);
      }
    </style>
    <linearGradient id="linear-gradient" x1="40.75" y1="40.141" x2="0.656" y2="0.047" gradientUnits="userSpaceOnUse">
      <stop offset="0" stop-color="#NaNNaNNaN"/>
      <stop offset="1" stop-color="#fff"/>
    </linearGradient>
    <filter id="filter" x="0.656" y="0" width="40.094" height="40.188" filterUnits="userSpaceOnUse">
      <feFlood result="flood" flood-color="#ff3b4a"/>
      <feComposite result="composite" operator="in" in2="SourceGraphic"/>
      <feBlend result="blend" in2="SourceGraphic"/>
    </filter>
  </defs>
  <path id="Settings" class="cls-1" d="M20.711,25.657a5.564,5.564,0,1,1,5.544-5.565A5.562,5.562,0,0,1,20.711,25.657Zm0-9.686a4.122,4.122,0,1,0,4.106,4.121A4.12,4.12,0,0,0,20.711,15.971ZM18.294,40.189a0.722,0.722,0,0,1-.7-0.545L16.36,34.681a15.524,15.524,0,0,1-2.832-1.205l-4.4,2.65a0.722,0.722,0,0,1-.877-0.107L4.831,32.588a0.721,0.721,0,0,1-.107-0.879L7.365,27.3a15.144,15.144,0,0,1-1.177-2.838L1.213,23.217a0.724,0.724,0,0,1-.545-0.7V17.675a0.72,0.72,0,0,1,.545-0.7l4.946-1.239a15.805,15.805,0,0,1,1.2-2.844L4.721,8.478A0.725,0.725,0,0,1,4.828,7.6L8.242,4.173a0.71,0.71,0,0,1,.88-0.108l4.4,2.646a15.221,15.221,0,0,1,2.827-1.177l1.242-4.99A0.721,0.721,0,0,1,18.289,0H23.12a0.719,0.719,0,0,1,.7.547L25.055,5.51a16.053,16.053,0,0,1,2.829,1.2L32.29,4.056a0.735,0.735,0,0,1,.877.111l3.414,3.423a0.722,0.722,0,0,1,.11.882l-2.642,4.419a15.369,15.369,0,0,1,1.172,2.826L40.2,16.97a0.719,0.719,0,0,1,.546.7v4.84a0.717,0.717,0,0,1-.546.7l-4.98,1.251a15.13,15.13,0,0,1-1.169,2.829L36.7,31.7a0.722,0.722,0,0,1-.11.882l-3.414,3.431a0.73,0.73,0,0,1-.877.109l-4.406-2.652a15.768,15.768,0,0,1-2.832,1.2l-1.232,4.963a0.721,0.721,0,0,1-.7.545l-4.832,0h0Zm-4.779-8.267a0.718,0.718,0,0,1,.36.1,14.177,14.177,0,0,0,3.279,1.39,0.732,0.732,0,0,1,.5.523l1.2,4.815,3.706,0,1.2-4.817a0.721,0.721,0,0,1,.5-0.518,14.242,14.242,0,0,0,3.279-1.392,0.714,0.714,0,0,1,.728,0l4.281,2.58,2.623-2.635L32.6,27.676a0.73,0.73,0,0,1-.008-0.734,13.64,13.64,0,0,0,1.355-3.269,0.717,0.717,0,0,1,.519-0.509l4.839-1.218V18.232l-4.839-1.216a0.714,0.714,0,0,1-.519-0.511A13.891,13.891,0,0,0,32.6,13.234,0.729,0.729,0,0,1,32.6,12.5l2.566-4.29L32.548,5.586,28.268,8.162a0.7,0.7,0,0,1-.728.006,14.4,14.4,0,0,0-3.278-1.391,0.713,0.713,0,0,1-.5-0.517l-1.2-4.819H18.853L17.644,6.287a0.719,0.719,0,0,1-.509.52,13.889,13.889,0,0,0-3.268,1.362,0.7,0.7,0,0,1-.728-0.007L8.863,5.588,6.243,8.219,8.809,12.5a0.722,0.722,0,0,1,.005.732,14.47,14.47,0,0,0-1.389,3.293,0.721,0.721,0,0,1-.519.506l-4.8,1.2v3.715L6.94,23.168a0.718,0.718,0,0,1,.519.511,13.787,13.787,0,0,0,1.36,3.275,0.72,0.72,0,0,1-.008.732L6.245,31.97,8.869,34.6l4.276-2.576A0.714,0.714,0,0,1,13.515,31.922Z"/>
</svg>
