<svg xmlns="http://www.w3.org/2000/svg" xmlns:xlink="http://www.w3.org/1999/xlink" width="44" height="33" viewBox="0 0 44 33">
  <metadata><?xpacket begin="﻿" id="W5M0MpCehiHzreSzNTczkc9d"?>
<x:xmpmeta xmlns:x="adobe:ns:meta/" x:xmptk="Adobe XMP Core 5.6-c142 79.160924, 2017/07/13-01:06:39        ">
   <rdf:RDF xmlns:rdf="http://www.w3.org/1999/02/22-rdf-syntax-ns#">
      <rdf:Description rdf:about=""/>
   </rdf:RDF>
</x:xmpmeta>
                                                                                                    
                                                                                                    
                                                                                                    
                                                                                                    
                                                                                                    
                                                                                                    
                                                                                                    
                                                                                                    
                                                                                                    
                                                                                                    
                                                                                                    
                                                                                                    
                                                                                                    
                                                                                                    
                                                                                                    
                                                                                                    
                                                                                                    
                                                                                                    
                                                                                                    
                                                                                                    
                           
<?xpacket end="w"?></metadata>
<defs>
    <style>
      .cls-1 {
        fill-rule: evenodd;
        fill: url(#linear-gradient);
        filter: url(#filter);
      }
    </style>
    <linearGradient id="linear-gradient" x1="5.5" x2="38.5" y2="33" gradientUnits="userSpaceOnUse">
      <stop offset="0" stop-color="#fff"/>
      <stop offset="1" stop-color="#fff"/>
    </linearGradient>
    <filter id="filter" x="0" y="0" width="44" height="33" filterUnits="userSpaceOnUse">
      <feFlood result="flood" flood-color="#ff3b4a"/>
      <feComposite result="composite" operator="in" in2="SourceGraphic"/>
      <feBlend result="blend" in2="SourceGraphic"/>
    </filter>
  </defs>
  <path id="Truck_2" data-name="Truck 2" class="cls-1" d="M43.955,16.446V6.044a0.788,0.788,0,0,0-.791-0.781H28.124V0.775A0.783,0.783,0,0,0,27.337,0H0.8A0.785,0.785,0,0,0,.006.775V26.967a0.785,0.785,0,0,0,.791.78H3.464a0.781,0.781,0,1,0,0-1.561H1.585V1.552H26.546V21.141a0.789,0.789,0,0,0,1.578,0V6.822h6.338v9.715a0.783,0.783,0,0,0,.788.779h7.126v8.87h-1.85a0.781,0.781,0,1,0,0,1.561h2.638a0.785,0.785,0,0,0,.791-0.78V16.626c0-.036.037-0.054,0.037-0.089S43.957,16.482,43.955,16.446Zm-1.578-.69H36.038V6.822h6.339v8.934Zm-9.776,5.2a6.019,6.019,0,1,0,6.084,6.017A6.061,6.061,0,0,0,32.6,20.952Zm0,10.477a4.459,4.459,0,1,1,4.505-4.46A4.492,4.492,0,0,1,32.6,31.429ZM11.4,20.948a6.019,6.019,0,1,0,6.089,6.018A6.06,6.06,0,0,0,11.4,20.948Zm0,10.478a4.458,4.458,0,1,1,4.511-4.46A4.492,4.492,0,0,1,11.4,31.427Zm13.27-5.241H19.328a0.781,0.781,0,1,0,0,1.561h5.339A0.781,0.781,0,1,0,24.667,26.186Z"/>
</svg>
